<svg width="800" height="800" viewBox="0 0 800 800" fill="none" xmlns="http://www.w3.org/2000/svg">
<g clip-path="url(#clip0_908_223)">
<path d="M399.655 797.979L168.78 733.886L117.33 156.822H682.671L631.167 733.797L399.655 797.979Z" fill="#D0021B"/>
<path d="M587.074 697.057L631.085 204.004H400V748.92L587.074 697.057Z" fill="#F10E29"/>
<path d="M235.277 418.03L241.619 488.805H400V418.03H235.277ZM222.53 274.781L228.964 345.556H400V274.781H222.53ZM400 601.839L399.689 601.921L320.868 580.638L315.829 524.193H244.782L254.696 635.32L399.674 675.564L400 675.475V601.839Z" fill="#EBEBEB"/>
<path d="M250.38 0H336.097V35.8471H286.227V71.6942H336.102V107.539H250.38V0ZM353.243 0H438.963V31.1712H389.09V37.405H438.963V109.099H353.245V76.3657H403.118V70.1319H353.241L353.243 0ZM456.108 0H541.828V31.1712H491.956V37.405H541.828V109.099H456.108V76.3657H505.981V70.1319H456.111V0H456.108Z" fill="black"/>
<path d="M564.27 418.03L577.046 274.781H399.756V345.556H499.484L493.044 418.03H399.756V488.805H486.907L478.69 580.594L399.754 601.899V675.53L544.846 635.32L545.91 623.362L562.544 437.035L564.27 418.03Z" fill="white"/>
</g>
<defs>
<clipPath id="clip0_908_223">
<rect width="800" height="800" fill="white"/>
</clipPath>
</defs>
</svg>
